<svg width="18" height="20" viewBox="0 0 18 20" fill="none" xmlns="http://www.w3.org/2000/svg">
<path d="M17.1613 15.5863C16.8588 16.285 16.5008 16.9282 16.086 17.5196C15.5206 18.3257 15.0576 18.8837 14.7009 19.1936C14.1478 19.7022 13.5552 19.9627 12.9207 19.9775C12.4651 19.9775 11.9158 19.8479 11.2763 19.585C10.6347 19.3232 10.0451 19.1936 9.50596 19.1936C8.94054 19.1936 8.33414 19.3232 7.68552 19.585C7.03591 19.8479 6.5126 19.9849 6.11249 19.9985C5.50399 20.0244 4.89746 19.7565 4.29205 19.1936C3.90564 18.8566 3.42233 18.2788 2.84333 17.4603C2.22212 16.5863 1.71139 15.5727 1.31128 14.4172C0.882777 13.1691 0.667969 11.9605 0.667969 10.7904C0.667969 9.45007 0.957589 8.29406 1.53769 7.32532C1.99361 6.54719 2.60013 5.93339 3.35924 5.48278C4.11835 5.03218 4.93857 4.80256 5.82188 4.78787C6.3052 4.78787 6.939 4.93737 7.72663 5.23119C8.51204 5.52599 9.01634 5.67549 9.23745 5.67549C9.40275 5.67549 9.96298 5.50068 10.9127 5.15217C11.8108 4.82897 12.5688 4.69515 13.1898 4.74787C14.8725 4.88366 16.1366 5.54698 16.9773 6.742C15.4724 7.65383 14.728 8.93095 14.7428 10.5693C14.7564 11.8454 15.2194 12.9074 16.1292 13.7506C16.5415 14.1419 17.002 14.4444 17.5143 14.6592C17.4032 14.9814 17.286 15.29 17.1613 15.5863ZM13.3021 0.400343C13.3021 1.40057 12.9367 2.33448 12.2083 3.1989C11.3294 4.22652 10.2662 4.82033 9.11325 4.72663C9.09856 4.60664 9.09004 4.48034 9.09004 4.34763C9.09004 3.38741 9.50806 2.35979 10.2504 1.51957C10.621 1.09415 11.0923 0.740419 11.6639 0.458242C12.2343 0.180275 12.7738 0.0265531 13.2811 0.000228882C13.296 0.133944 13.3021 0.267667 13.3021 0.40033V0.400343Z" fill="white"/>
</svg>
