<svg width="21" height="20" viewBox="0 0 21 20" fill="none" xmlns="http://www.w3.org/2000/svg">
<path d="M20.4725 8.04148H19.667V7.99999H10.667V12H16.3185C15.494 14.3285 13.2785 16 10.667 16C7.35348 16 4.66698 13.3135 4.66698 9.99998C4.66698 6.68649 7.35348 3.99999 10.667 3.99999C12.1965 3.99999 13.588 4.57699 14.6475 5.51949L17.476 2.69099C15.69 1.0265 13.301 0 10.667 0C5.14448 0 0.666992 4.47749 0.666992 9.99998C0.666992 15.5225 5.14448 20 10.667 20C16.1895 20 20.667 15.5225 20.667 9.99998C20.667 9.32948 20.598 8.67498 20.4725 8.04148Z" fill="#FFC107"/>
<path d="M10.6671 19.9999C13.2501 19.9999 15.5971 19.0114 17.3716 17.4039L14.2766 14.7849C13.2389 15.5741 11.9709 16.001 10.6671 15.9999C8.06614 15.9999 5.85764 14.3414 5.02564 12.0269L1.76465 14.5394C3.41965 17.7779 6.78064 19.9999 10.6671 19.9999Z" fill="#4CAF50"/>
<path d="M20.4725 8.04155H19.667V8.00005H10.667V12H16.3185C15.9241 13.1082 15.2137 14.0766 14.275 14.7855L14.2765 14.7845L17.3715 17.4035C17.1525 17.6025 20.667 15 20.667 10C20.667 9.32954 20.598 8.67504 20.4725 8.04155Z" fill="#1976D2"/>
<path d="M1.82031 5.34549L5.10581 7.75499C5.9948 5.55399 8.1478 3.99999 10.6673 3.99999C12.1968 3.99999 13.5883 4.57699 14.6478 5.51949L17.4763 2.69099C15.6903 1.0265 13.3013 0 10.6673 0C6.8263 0 3.49531 2.1685 1.82031 5.34549Z" fill="#FF3D00"/>
</svg>
